<svg width="75" height="75" viewBox="0 0 75 75" fill="none" xmlns="http://www.w3.org/2000/svg">
<g clip-path="url(#clip0)">
<path d="M7.32422 66.21C6.51512 66.21 5.85938 66.8657 5.85938 67.6748V67.6759C5.85938 68.4845 6.51512 69.1402 7.32422 69.1402C8.13332 69.1402 8.78906 68.4839 8.78906 67.6748C8.78906 66.8657 8.13332 66.21 7.32422 66.21Z" fill="white"/>
<path d="M73.5357 0H61.8169C61.0078 0 60.3521 0.655746 60.3521 1.46484V2.99377L58.3974 2.98176C58.3945 2.98176 58.3911 2.98176 58.3883 2.98176C57.5837 2.98176 56.9286 3.63121 56.9234 4.43687C56.9183 5.24597 57.57 5.9063 58.3791 5.91145L60.3521 5.92346V21.1212C56.5166 23.5371 53.0547 22.146 49.4006 20.6743C46.9928 19.7044 44.502 18.7019 42.0169 19.0138C41.233 19.1122 39.117 19.4195 36.8774 19.7445C34.7551 20.0523 32.5601 20.3711 31.8053 20.466C31.4214 20.5141 31.0386 20.4071 30.7273 20.1651C30.4097 19.9173 30.2072 19.562 30.158 19.1637C30.1259 18.9045 30.0407 18.215 31.8763 17.363C35.7621 15.5611 39.9032 14.0184 43.238 13.131C44.0196 12.9227 44.4848 12.1204 44.2765 11.3382C44.0688 10.5566 43.2666 10.092 42.4844 10.2997C38.9928 11.2289 34.6767 12.8351 30.6438 14.7057C29.2407 15.3563 28.3784 16.1133 27.8703 16.8766L13.1841 20.8815C11.6391 21.27 10.8466 20.6549 10.6195 19.9493C10.3963 19.2547 10.6658 18.3592 11.7707 17.9232C12.9203 17.4854 15.664 16.2775 19.1362 14.7497C23.7378 12.7247 29.4639 10.2041 34.0301 8.3519C39.4563 6.15063 41.11 5.81875 46.6655 5.83878H46.6701C47.4769 5.83878 48.1321 5.18589 48.1349 4.37851C48.1372 3.56941 47.4832 2.91138 46.6741 2.90909C40.7483 2.88906 38.6924 3.29933 32.9292 5.63736C28.3229 7.50561 22.5751 10.0353 17.9563 12.0678C14.6507 13.5229 11.7954 14.7795 10.7208 15.188C10.7162 15.1897 10.7116 15.1915 10.707 15.1932C7.97016 16.2666 7.18853 18.8496 7.83055 20.846C8.46283 22.8132 10.6372 24.551 13.9165 23.7185C13.9251 23.7162 13.9331 23.7144 13.9417 23.7116L27.349 20.0558C27.5871 21.0136 28.1352 21.8599 28.9277 22.4768C29.8576 23.2006 31.0094 23.5188 32.1704 23.3728C32.9532 23.2744 35.0635 22.9677 37.2979 22.6439C39.426 22.3349 41.6255 22.0156 42.382 21.9206C44.1129 21.7031 46.1499 22.5231 48.306 23.3917C50.5908 24.3118 53.1938 25.3607 56.0107 25.3601C57.4092 25.3601 58.8609 25.0992 60.3521 24.4377V24.9023C60.3521 25.7114 61.0078 26.3672 61.8169 26.3672H73.5357C74.3447 26.3672 75.0005 25.7114 75.0005 24.9023V1.46484C75.0005 0.655746 74.3447 0 73.5357 0ZM72.0708 23.4375H63.2817V4.47865V4.4775C63.2817 4.4775 63.2817 4.47636 63.2817 4.47578V2.92969H72.0708V23.4375Z" fill="white"/>
<path d="M67.6758 8.79012C68.4849 8.79012 69.1406 8.13438 69.1406 7.32528V7.32413C69.1406 6.51561 68.4849 5.85986 67.6758 5.85986C66.8667 5.85986 66.2109 6.51618 66.2109 7.32528C66.2109 8.13438 66.8667 8.79012 67.6758 8.79012Z" fill="white"/>
<path d="M27.2461 47.7539C30.7222 47.7539 33.7984 46.0133 35.6535 43.3594H41.0654C41.4539 43.3594 41.8264 43.2049 42.1011 42.9302L44.6016 40.4297H46.3182L48.8188 42.9302C49.0934 43.2049 49.4659 43.3594 49.8545 43.3594H52.1484C52.537 43.3594 52.9095 43.2049 53.1841 42.9302L57.5787 38.5357C57.8533 38.261 58.0078 37.8885 58.0078 37.5V33.1055C58.0078 32.2969 57.3521 31.6406 56.543 31.6406H35.6541C33.7984 28.9867 30.7228 27.2461 27.2461 27.2461C21.5921 27.2461 16.9922 31.846 16.9922 37.5C16.9922 43.154 21.5921 47.7539 27.2461 47.7539ZM55.0781 34.5703V36.8935L51.5419 40.4297H50.4616L47.9605 37.9292C47.6858 37.6545 47.3133 37.5 46.9248 37.5H43.9951C43.6066 37.5 43.2341 37.6545 42.9594 37.9292L40.4589 40.4297H37.0714C37.3489 39.501 37.5 38.518 37.5 37.5C37.5 36.482 37.3489 35.499 37.0714 34.5703H55.0781ZM27.2461 30.1758C31.2847 30.1758 34.5703 33.4614 34.5703 37.5C34.5703 41.5386 31.2847 44.8242 27.2461 44.8242C23.2075 44.8242 19.9219 41.5386 19.9219 37.5C19.9219 33.4614 23.2075 30.1758 27.2461 30.1758Z" fill="white"/>
<path d="M24.3164 38.9649C25.1255 38.9649 25.7812 38.3086 25.7812 37.4995C25.7812 36.6904 25.1255 36.0347 24.3164 36.0347C23.5073 36.0347 22.8516 36.6904 22.8516 37.4995V37.5007C22.8516 38.3098 23.5073 38.9649 24.3164 38.9649Z" fill="white"/>
<path d="M52.5283 5.875H52.5289C53.338 5.875 53.9932 5.21868 53.9932 4.41016C53.9932 3.60106 53.3368 2.94531 52.5283 2.94531C51.7192 2.94531 51.0635 3.60106 51.0635 4.41016C51.0635 5.21868 51.7192 5.875 52.5283 5.875Z" fill="white"/>
<path d="M61.084 51.2815C61.0754 51.2838 61.0674 51.2855 61.0588 51.2883L47.6515 54.9441C47.4134 53.9863 46.8653 53.14 46.0728 52.5231C45.1429 51.7993 43.9911 51.4812 42.8301 51.6271C42.0473 51.7255 39.937 52.0322 37.7026 52.3561C35.5745 52.6651 33.375 52.9843 32.6185 53.0793C30.8882 53.2962 28.8506 52.4768 26.6945 51.6082C23.275 50.2315 19.142 48.5675 14.6484 50.5605V50.0981C14.6484 49.289 13.9927 48.6333 13.1836 48.6333H1.46484C0.655746 48.6333 0 49.289 0 50.0981V73.5351C0 74.3442 0.655746 74.9999 1.46484 74.9999H13.1836C13.9927 74.9999 14.6484 74.3442 14.6484 73.5351V72.0061L16.6031 72.0182H16.6122C17.4168 72.0182 18.0719 71.3687 18.0771 70.5625C18.0822 69.7539 17.4305 69.0936 16.6214 69.0885L14.6484 69.0765V53.8787C18.4839 51.4629 21.9458 52.8539 25.5999 54.325C28.0083 55.2955 30.4996 56.298 32.9836 55.9856C33.7681 55.8871 35.8835 55.5804 38.1231 55.2554C40.2454 54.947 42.4404 54.6289 43.1952 54.5339C43.5791 54.4858 43.9619 54.5922 44.2732 54.8349C44.5913 55.0826 44.7933 55.438 44.8425 55.8362C44.8746 56.0954 44.9604 56.7849 43.1242 57.6364C39.2384 59.4388 35.0979 60.9815 31.7631 61.869C30.9814 62.0772 30.5162 62.8795 30.724 63.6611C30.9322 64.4433 31.735 64.9074 32.5161 64.7002C36.0077 63.771 40.3238 62.1648 44.3573 60.2943C45.7598 59.6437 46.6221 58.8866 47.1308 58.1233L61.8164 54.1185C63.3608 53.7294 64.1539 54.345 64.381 55.0506C64.6042 55.7452 64.3347 56.6407 63.2303 57.0768C62.0813 57.5145 59.3365 58.7224 55.8638 60.2508C51.2627 62.2758 45.5366 64.7958 40.9704 66.648C35.5442 68.8493 33.8871 69.1823 28.335 69.1611C28.3339 69.1611 28.3321 69.1611 28.3304 69.1611C27.5236 69.1611 26.8684 69.814 26.8656 70.6214C26.8633 71.4305 27.5173 72.0885 28.3264 72.0908C28.446 72.0914 28.5639 72.0914 28.6806 72.0914C34.3374 72.0914 36.4248 71.6537 42.0713 69.3626C46.677 67.4943 52.4254 64.9646 57.0436 62.9321C60.3498 61.477 63.2051 60.2204 64.2792 59.8119C64.2838 59.8102 64.2883 59.8085 64.2935 59.8067C67.0303 58.7333 67.812 56.1504 67.17 54.1539C66.5377 52.1873 64.3633 50.4495 61.084 51.2815ZM2.92969 72.0702V51.5624H11.7188V70.523V70.5247V72.0702H2.92969Z" fill="white"/>
<path d="M22.4723 69.125H22.4711C21.662 69.125 21.0068 69.7813 21.0068 70.5898C21.0068 71.3989 21.6632 72.0547 22.4723 72.0547C23.2813 72.0547 23.9371 71.3989 23.9371 70.5898C23.9371 69.7813 23.2813 69.125 22.4723 69.125Z" fill="white"/>
</g>
<defs>
<clipPath id="clip0">
<rect width="75" height="75" fill="white"/>
</clipPath>
</defs>
</svg>
