<svg width="75" height="75" viewBox="0 0 75 75" fill="none" xmlns="http://www.w3.org/2000/svg">
<path d="M38.75 20H21.25V37.5H38.75V20ZM36.25 35H23.75V22.5H36.25V35Z" fill="white"/>
<path d="M65 20H45C44.3088 20 43.75 20.5587 43.75 21.25C43.75 21.9412 44.3088 22.5 45 22.5H65C65.6912 22.5 66.25 21.9412 66.25 21.25C66.25 20.5587 65.6912 20 65 20Z" fill="white"/>
<path d="M65 27.5H45C44.3088 27.5 43.75 28.0588 43.75 28.75C43.75 29.4412 44.3088 30 45 30H65C65.6912 30 66.25 29.4412 66.25 28.75C66.25 28.0588 65.6912 27.5 65 27.5Z" fill="white"/>
<path d="M65 35H45C44.3088 35 43.75 35.5588 43.75 36.25C43.75 36.9412 44.3088 37.5 45 37.5H65C65.6912 37.5 66.25 36.9412 66.25 36.25C66.25 35.5588 65.6912 35 65 35Z" fill="white"/>
<path d="M65 42.5H23.75C23.0588 42.5 22.5 43.0588 22.5 43.75C22.5 44.4412 23.0588 45 23.75 45H65C65.6912 45 66.25 44.4412 66.25 43.75C66.25 43.0588 65.6912 42.5 65 42.5Z" fill="white"/>
<path d="M42.5 50H23.75C23.0588 50 22.5 50.5588 22.5 51.25C22.5 51.9412 23.0588 52.5 23.75 52.5H42.5C43.1912 52.5 43.75 51.9412 43.75 51.25C43.75 50.5588 43.1912 50 42.5 50Z" fill="white"/>
<path d="M42.5 57.5H23.75C23.0588 57.5 22.5 58.0588 22.5 58.75C22.5 59.4412 23.0588 60 23.75 60H42.5C43.1912 60 43.75 59.4412 43.75 58.75C43.75 58.0588 43.1912 57.5 42.5 57.5Z" fill="white"/>
<path d="M42.5 65H23.75C23.0588 65 22.5 65.5588 22.5 66.25C22.5 66.9412 23.0588 67.5 23.75 67.5H42.5C43.1912 67.5 43.75 66.9412 43.75 66.25C43.75 65.5588 43.1912 65 42.5 65Z" fill="white"/>
<path d="M48.75 67.5H66.25V50H48.75V67.5ZM51.25 52.5H63.75V65H51.25V52.5Z" fill="white"/>
<path d="M73.75 16.25C73.75 16.2288 73.7388 16.2113 73.7375 16.19V0H13.75V37.5H1.25V67.5C1.25 71.6363 4.61375 75 8.75 75H66.25C70.3788 75 73.7375 71.64 73.7375 67.5125V16.31C73.7388 16.2887 73.75 16.2712 73.75 16.25ZM71.2375 2.5V15H16.25V2.5H71.2375ZM3.75 67.5V40H13.75V67.5C13.75 70.2575 11.5075 72.5 8.75 72.5C5.9925 72.5 3.75 70.2575 3.75 67.5ZM66.25 72.5H14.3363C14.3562 72.4775 14.37 72.4512 14.3888 72.4287C14.6437 72.1375 14.8763 71.8263 15.0838 71.4975C15.1175 71.445 15.1488 71.3925 15.1813 71.3375C15.3838 71 15.5625 70.6475 15.71 70.2775C15.73 70.2262 15.7475 70.175 15.7662 70.1237C15.91 69.7412 16.0275 69.3463 16.1075 68.9375C16.115 68.9 16.1175 68.8613 16.125 68.825C16.2025 68.395 16.25 67.9525 16.25 67.5V37.5V17.5H71.2375V67.5125C71.2375 70.2625 69 72.5 66.25 72.5Z" fill="white"/>
<path d="M58.75 5H28.75V12.5H58.75V5ZM56.25 10H31.25V7.5H56.25V10Z" fill="white"/>
</svg>
