<svg width="75" height="75" viewBox="0 0 75 75" fill="none" xmlns="http://www.w3.org/2000/svg">
<path d="M67.71 0H7.29C5.33875 0 3.75 1.58875 3.75 3.54V71.46C3.75 73.4112 5.33875 75 7.29 75H67.71C69.6612 75 71.25 73.4112 71.25 71.46V3.54C71.25 1.58875 69.6612 0 67.71 0ZM7.29 2.5H67.71C68.2838 2.5 68.75 2.96625 68.75 3.54V36.25H6.25V3.54C6.25 2.96625 6.71625 2.5 7.29 2.5ZM67.71 72.5H7.29C6.71625 72.5 6.25 72.0338 6.25 71.46V38.75H68.75V71.46C68.75 72.0338 68.2838 72.5 67.71 72.5Z" fill="white"/>
<path d="M30.6312 22.5H44.3687C46.785 22.5 48.75 20.535 48.75 18.1187V16.25C48.75 15.5588 48.1912 15 47.5 15C46.8088 15 46.25 15.5588 46.25 16.25V18.1187C46.25 19.1562 45.4062 20 44.3687 20H30.6312C29.5937 20 28.75 19.1562 28.75 18.1187V16.25C28.75 15.5588 28.1912 15 27.5 15C26.8088 15 26.25 15.5588 26.25 16.25V18.1187C26.25 20.535 28.215 22.5 30.6312 22.5Z" fill="white"/>
<path d="M47.5 51.25C46.8088 51.25 46.25 51.8088 46.25 52.5V54.3688C46.25 55.4063 45.4062 56.25 44.3687 56.25H30.6312C29.5937 56.25 28.75 55.4063 28.75 54.3688V52.5C28.75 51.8088 28.1912 51.25 27.5 51.25C26.8088 51.25 26.25 51.8088 26.25 52.5V54.3688C26.25 56.785 28.215 58.75 30.6312 58.75H44.3687C46.785 58.75 48.75 56.785 48.75 54.3688V52.5C48.75 51.8088 48.1912 51.25 47.5 51.25Z" fill="white"/>
</svg>
