<svg width="75" height="75" viewBox="0 0 75 75" fill="none" xmlns="http://www.w3.org/2000/svg">
<path d="M65.2851 36.6679C65.0617 36.452 64.7638 36.3303 64.4531 36.328H41.0156V29.2968H64.4531C64.7638 29.2945 65.0617 29.1728 65.2851 28.9569L72.3164 21.9257C72.5359 21.7044 72.6591 21.4054 72.6591 21.0937C72.6591 20.7819 72.5359 20.4829 72.3164 20.2616L65.2851 13.2304C65.0617 13.0145 64.7638 12.8928 64.4531 12.8905H41.0156V10.1015C41.6123 9.42489 42.0011 8.59052 42.1353 7.69846C42.2695 6.80641 42.1435 5.89457 41.7723 5.07236C41.4012 4.25016 40.8007 3.55251 40.0428 3.06314C39.285 2.57378 38.4021 2.31348 37.5 2.31348C36.5979 2.31348 35.7149 2.57378 34.9571 3.06314C34.1993 3.55251 33.5988 4.25016 33.2276 5.07236C32.8565 5.89457 32.7304 6.80641 32.8647 7.69846C32.9989 8.59052 33.3877 9.42489 33.9844 10.1015V24.6093H10.5469C10.2362 24.6116 9.93828 24.7333 9.71482 24.9491L2.68357 31.9804C2.46402 32.2016 2.34082 32.5007 2.34082 32.8124C2.34082 33.1241 2.46402 33.4232 2.68357 33.6444L9.71482 40.6757C9.93828 40.8915 10.2362 41.0132 10.5469 41.0155H33.9844V63.621C30.3984 64.289 28.125 65.9296 28.125 67.9687C28.125 71.0507 32.8359 72.6562 37.5 72.6562C42.164 72.6562 46.875 71.0507 46.875 67.9687C46.875 65.9296 44.6015 64.289 41.0156 63.621V52.7343H64.4531C64.7638 52.732 65.0617 52.6103 65.2851 52.3944L72.3164 45.3632C72.5359 45.1419 72.6591 44.8429 72.6591 44.5312C72.6591 44.2195 72.5359 43.9204 72.3164 43.6991L65.2851 36.6679ZM41.0156 15.2343H63.9726L69.832 21.0937L63.9726 26.953H41.0156V15.2343ZM37.5 4.6874C37.9635 4.6874 38.4167 4.82486 38.8021 5.0824C39.1875 5.33993 39.4879 5.70598 39.6653 6.13424C39.8427 6.5625 39.8891 7.03375 39.7987 7.4884C39.7083 7.94304 39.485 8.36066 39.1573 8.68844C38.8295 9.01622 38.4119 9.23944 37.9572 9.32987C37.5026 9.4203 37.0313 9.37389 36.6031 9.1965C36.1748 9.0191 35.8088 8.7187 35.5512 8.33327C35.2937 7.94784 35.1562 7.4947 35.1562 7.03115C35.1581 6.41012 35.4056 5.81506 35.8447 5.37592C36.2839 4.93678 36.8789 4.68926 37.5 4.6874ZM38.6719 11.5546V65.6249C38.6719 65.9357 38.5484 66.2338 38.3286 66.4535C38.1089 66.6733 37.8108 66.7968 37.5 66.7968C37.1892 66.7968 36.8911 66.6733 36.6713 66.4535C36.4516 66.2338 36.3281 65.9357 36.3281 65.6249V11.5546C37.094 11.7734 37.9059 11.7734 38.6719 11.5546ZM11.0273 38.6718L5.16795 32.8124L11.0273 26.953H33.9844V38.6718H11.0273ZM44.5312 67.9687C44.5312 68.8007 41.8594 70.3124 37.5 70.3124C33.1406 70.3124 30.4687 68.8007 30.4687 67.9687C30.4687 67.4179 31.7226 66.4921 34.0195 65.9882C34.1063 66.8509 34.5105 67.6507 35.1536 68.2323C35.7967 68.8139 36.6329 69.136 37.5 69.136C38.3671 69.136 39.2033 68.8139 39.8464 68.2323C40.4895 67.6507 40.8936 66.8509 40.9804 65.9882C43.2773 66.4921 44.5312 67.4179 44.5312 67.9687ZM63.9726 50.3905H41.0156V38.6718H63.9726L69.832 44.5312L63.9726 50.3905Z" fill="white"/>
</svg>
