<svg width="25" height="25" viewBox="0 0 25 25" fill="none" xmlns="http://www.w3.org/2000/svg">
<path d="M24.7805 23.7251L18.7051 17.6497C20.3348 15.7761 21.3215 13.3315 21.3215 10.6596C21.3215 4.77827 16.5377 0 10.6618 0C4.78047 0 0.00219727 4.78381 0.00219727 10.6596C0.00219727 16.5355 4.78601 21.3193 10.6618 21.3193C13.3337 21.3193 15.7783 20.3326 17.6519 18.7029L23.7273 24.7783C23.8714 24.9224 24.0654 25 24.2539 25C24.4423 25 24.6363 24.9279 24.7805 24.7783C25.0687 24.49 25.0687 24.0133 24.7805 23.7251ZM1.49333 10.6596C1.49333 5.60421 5.60641 1.49667 10.6563 1.49667C15.7117 1.49667 19.8193 5.60976 19.8193 10.6596C19.8193 15.7095 15.7117 19.8282 10.6563 19.8282C5.60641 19.8282 1.49333 15.7151 1.49333 10.6596Z" fill="#072833"/>
</svg>
