<svg width="42" height="40" viewBox="0 0 42 40" fill="none" xmlns="http://www.w3.org/2000/svg">
<g clip-path="url(#clip0)">
<path d="M24.647 20C24.647 22.1143 22.9125 23.8281 20.7727 23.8281C18.633 23.8281 16.8984 22.1143 16.8984 20C16.8984 17.8857 18.633 16.1719 20.7727 16.1719C22.9125 16.1719 24.647 17.8857 24.647 20Z" fill="#00C0F3"/>
<path d="M29.8325 13.2278C29.6463 12.7292 29.3492 12.2778 28.9631 11.9073C28.5881 11.5259 28.1317 11.2323 27.6267 11.0483C27.2171 10.8911 26.6019 10.704 25.4687 10.6531C24.2429 10.5978 23.8753 10.5859 20.772 10.5859C17.6683 10.5859 17.3007 10.5975 16.0752 10.6528C14.942 10.704 14.3265 10.8911 13.9172 11.0483C13.4123 11.2323 12.9555 11.5259 12.5808 11.9073C12.1947 12.2778 11.8976 12.7289 11.7111 13.2278C11.552 13.6325 11.3627 14.2407 11.3111 15.3604C11.2552 16.5714 11.2432 16.9345 11.2432 20.0012C11.2432 23.0676 11.2552 23.4308 11.3111 24.642C11.3627 25.7617 11.552 26.3696 11.7111 26.7743C11.8976 27.2733 12.1944 27.7243 12.5805 28.0948C12.9555 28.4763 13.4119 28.7698 13.9169 28.9539C14.3265 29.1113 14.942 29.2984 16.0752 29.3494C17.3007 29.4046 17.668 29.4162 20.7716 29.4162C23.8756 29.4162 24.2432 29.4046 25.4684 29.3494C26.6016 29.2984 27.2171 29.1113 27.6267 28.9539C28.6403 28.5675 29.4415 27.7759 29.8325 26.7743C29.9916 26.3696 30.1809 25.7617 30.2328 24.642C30.2887 23.4308 30.3004 23.0676 30.3004 20.0012C30.3004 16.9345 30.2887 16.5714 30.2328 15.3604C30.1812 14.2407 29.9919 13.6325 29.8325 13.2278ZM20.772 25.8981C17.4755 25.8981 14.8033 23.2581 14.8033 20.0009C14.8033 16.7438 17.4755 14.1037 20.772 14.1037C24.068 14.1037 26.7403 16.7438 26.7403 20.0009C26.7403 23.2581 24.068 25.8981 20.772 25.8981ZM26.9762 15.2487C26.2059 15.2487 25.5814 14.6317 25.5814 13.8705C25.5814 13.1094 26.2059 12.4924 26.9762 12.4924C27.7465 12.4924 28.371 13.1094 28.371 13.8705C28.3707 14.6317 27.7465 15.2487 26.9762 15.2487Z" fill="#00C0F3"/>
<path d="M20.7724 0C9.59521 0 0.53125 8.95599 0.53125 20C0.53125 31.044 9.59521 40 20.7724 40C31.9495 40 41.0135 31.044 41.0135 20C41.0135 8.95599 31.9495 0 20.7724 0ZM32.3251 24.7348C32.2689 25.9573 32.0721 26.792 31.7849 27.5226C31.1811 29.0652 29.9469 30.2847 28.3856 30.8813C27.6465 31.1652 26.8015 31.3593 25.5645 31.4151C24.3251 31.4709 23.9292 31.4844 20.7727 31.4844C17.6159 31.4844 17.2202 31.4709 15.9805 31.4151C14.7435 31.3593 13.8985 31.1652 13.1594 30.8813C12.3836 30.593 11.6812 30.141 11.1006 29.5566C10.5094 28.9832 10.052 28.2889 9.76014 27.5226C9.4729 26.7923 9.27616 25.9573 9.21995 24.7351C9.16281 23.5101 9.14953 23.1189 9.14953 20C9.14953 16.8811 9.16281 16.4899 9.21964 15.2652C9.27585 14.0427 9.47229 13.208 9.75952 12.4774C10.0514 11.7111 10.5091 11.0168 11.1006 10.4434C11.6809 9.85901 12.3836 9.40704 13.1591 9.11865C13.8985 8.83484 14.7432 8.64075 15.9805 8.5849C17.2199 8.52905 17.6159 8.51562 20.7724 8.51562C23.9289 8.51562 24.3248 8.52905 25.5642 8.58521C26.8015 8.64075 27.6462 8.83484 28.3856 9.11835C29.1612 9.40674 29.8638 9.85901 30.4444 10.4434C31.0356 11.0172 31.4933 11.7111 31.7849 12.4774C32.0724 13.208 32.2689 14.0427 32.3254 15.2652C32.3819 16.4899 32.3952 16.8811 32.3952 20C32.3952 23.1189 32.3819 23.5101 32.3251 24.7348Z" fill="#00C0F3"/>
</g>
<defs>
<clipPath id="clip0">
<rect width="40.4822" height="40" fill="white" transform="translate(0.53125)"/>
</clipPath>
</defs>
</svg>
