<svg width="25" height="25" viewBox="0 0 25 25" fill="none" xmlns="http://www.w3.org/2000/svg">
<path d="M4.06217 12.4998C4.06217 10.7186 5.51009 9.27067 7.29134 9.27067H11.458V7.2915H7.29134C4.41634 7.2915 2.08301 9.62484 2.08301 12.4998C2.08301 15.3748 4.41634 17.7082 7.29134 17.7082H11.458V15.729H7.29134C5.51009 15.729 4.06217 14.2811 4.06217 12.4998ZM8.33301 13.5415H16.6663V11.4582H8.33301V13.5415ZM17.708 7.2915H13.5413V9.27067H17.708C19.4893 9.27067 20.9372 10.7186 20.9372 12.4998C20.9372 14.2811 19.4893 15.729 17.708 15.729H13.5413V17.7082H17.708C20.583 17.7082 22.9163 15.3748 22.9163 12.4998C22.9163 9.62484 20.583 7.2915 17.708 7.2915Z" fill="#999999"/>
</svg>
