<svg width="21" height="11" viewBox="0 0 21 11" fill="none" xmlns="http://www.w3.org/2000/svg">
<path d="M2.06217 5.49984C2.06217 3.71859 3.51009 2.27067 5.29134 2.27067H9.45801V0.291504H5.29134C2.41634 0.291504 0.0830078 2.62484 0.0830078 5.49984C0.0830078 8.37484 2.41634 10.7082 5.29134 10.7082H9.45801V8.729H5.29134C3.51009 8.729 2.06217 7.28109 2.06217 5.49984ZM6.33301 6.5415H14.6663V4.45817H6.33301V6.5415ZM15.708 0.291504H11.5413V2.27067H15.708C17.4893 2.27067 18.9372 3.71859 18.9372 5.49984C18.9372 7.28109 17.4893 8.729 15.708 8.729H11.5413V10.7082H15.708C18.583 10.7082 20.9163 8.37484 20.9163 5.49984C20.9163 2.62484 18.583 0.291504 15.708 0.291504Z" fill="#999999"/>
</svg>
