<svg width="41" height="40" viewBox="0 0 41 40" fill="none" xmlns="http://www.w3.org/2000/svg">
<path d="M20.2411 0C9.08021 0 0 8.97205 0 20C0 31.0271 9.08021 40 20.2411 40C31.4012 40 40.4822 31.0271 40.4822 20C40.4822 8.97205 31.4028 0 20.2411 0ZM25.2749 20.7041H21.9818C21.9818 25.9027 21.9818 32.3016 21.9818 32.3016H17.1021C17.1021 32.3016 17.1021 25.9647 17.1021 20.7041H14.7825V16.6052H17.1021V13.9539C17.1021 12.0551 18.0153 9.08805 22.0267 9.08805L25.6426 9.10175V13.0806C25.6426 13.0806 23.4453 13.0806 23.0181 13.0806C22.5909 13.0806 21.9834 13.2917 21.9834 14.1972V16.606H25.7013L25.2749 20.7041Z" fill="#00C0F3"/>
</svg>
