<svg width="41" height="40" viewBox="0 0 41 40" fill="none" xmlns="http://www.w3.org/2000/svg">
<path d="M20.3166 0C9.13283 0 0.0634766 8.95599 0.0634766 20C0.0634766 31.044 9.13283 40 20.3166 40C31.5004 40 40.5698 31.044 40.5698 20C40.5698 8.95599 31.5004 0 20.3166 0ZM29.564 15.5939C29.5729 15.7907 29.5773 15.9885 29.5773 16.1871C29.5773 22.2531 24.9015 29.248 16.3507 29.2484H16.351H16.3507C13.7254 29.2484 11.2825 28.4885 9.22523 27.1863C9.58897 27.2287 9.9592 27.2498 10.3341 27.2498C12.5122 27.2498 14.5166 26.5161 16.1078 25.2847C14.0728 25.2475 12.357 23.9203 11.7649 22.0963C12.0483 22.15 12.3397 22.1793 12.6386 22.1793C13.0629 22.1793 13.4739 22.1228 13.8645 22.0175C11.7374 21.597 10.135 19.7406 10.135 17.5177C10.135 17.4969 10.135 17.4783 10.1357 17.4591C10.7621 17.803 11.4784 18.0099 12.2411 18.0331C10.9929 17.2107 10.1724 15.8047 10.1724 14.212C10.1724 13.371 10.4027 12.583 10.8019 11.9046C13.0944 14.6823 16.5204 16.5091 20.384 16.701C20.3043 16.3647 20.2632 16.0144 20.2632 15.6543C20.2632 13.1201 22.3451 11.0641 24.9123 11.0641C26.2495 11.0641 27.4573 11.6223 28.3056 12.5146C29.3646 12.3083 30.3591 11.9263 31.2575 11.4005C30.9098 12.4719 30.1731 13.371 29.2132 13.9395C30.1536 13.8284 31.0498 13.5822 31.8827 13.2166C31.2606 14.1373 30.4716 14.946 29.564 15.5939Z" fill="#00C0F3"/>
</svg>
